<svg xmlns="http://www.w3.org/2000/svg" width="85mm" height="55mm" viewBox="0 0 850 550"><rect width="85mm" height="55mm" fill="#F2F0EA"/><g transform="translate(55 42) scale(1.9)" color="#111A33"><path d="M10 43 15 9H19L14 43Z" fill="currentColor"/><path d="M30 43 35 3H39L34 43Z" fill="currentColor"/><path d="M16 13H35L34.5 17H15.5Z" fill="currentColor"/><path d="M14.5 24H33.5L33 28H14Z" fill="currentColor"/><path d="M13 35H32L31.5 39H12.5Z" fill="currentColor"/></g><path d="M332 1251 336 1343H669Q816 1343 907.5 1301.5Q999 1260 1041.5 1188.5Q1084 1117 1084 1027Q1084 902 1002.5 817.0Q921 732 781 719L785 734Q961 724 1063.0 633.0Q1165 542 1165 404Q1165 288 1113.5 196.5Q1062 105 953.5 52.5Q845 0 670 0H337L334 92H660Q764 92 838.5 123.5Q913 155 953.0 221.0Q993 287 993 389Q993 471 959.0 533.5Q925 596 853.5 631.5Q782 667 670 667H333L332 759H655Q779 759 851.0 822.5Q923 886 923 1014Q923 1084 891.0 1137.0Q859 1190 793.5 1220.5Q728 1251 628 1251ZM84 0V39L243 90V1253L84 1305V1343H405V0Z" transform="translate(169.000,89.5) scale(0.025650,-0.025650)" fill="#111A33"/><path d="M477 878Q574 878 645.5 835.0Q717 792 759.5 709.5Q802 627 812 508H198L200 575L715 598L647 556Q640 629 618.5 684.0Q597 739 558.5 769.5Q520 800 461 800Q391 800 338.0 761.5Q285 723 255.5 648.5Q226 574 226 466Q226 353 269.5 271.0Q313 189 391.0 145.0Q469 101 573 101Q612 101 649.0 111.0Q686 121 722.5 141.5Q759 162 793 192L818 165Q767 102 714.5 60.5Q662 19 604.0 -0.5Q546 -20 478 -20Q362 -20 271.0 36.5Q180 93 127.5 191.5Q75 290 75 417Q75 544 123.5 648.5Q172 753 262.0 815.5Q352 878 477 878Z" transform="translate(201.114,89.5) scale(0.025650,-0.025650)" fill="#111A33"/><path d="M578 149 501 -37 132 769 8 816V858H422V816L291 774ZM221 -528Q169 -528 135.0 -499.0Q101 -470 101 -421Q101 -395 111.5 -375.5Q122 -356 140.0 -344.5Q158 -333 177 -333Q198 -333 214.5 -342.0Q231 -351 249.5 -360.0Q268 -369 291 -369Q313 -369 331.5 -360.0Q350 -351 367.5 -327.0Q385 -303 402 -259L518 35L566 163L791 779L659 816V858H984V816L878 779L497 -218Q451 -338 408.5 -405.5Q366 -473 320.5 -500.5Q275 -528 221 -528Z" transform="translate(223.763,89.5) scale(0.025650,-0.025650)" fill="#111A33"/><path d="M510 56Q586 56 645.0 93.0Q704 130 738.0 208.0Q772 286 772 406Q772 535 738.5 623.5Q705 712 645.0 757.5Q585 803 504 803Q428 803 368.5 765.5Q309 728 275.0 650.5Q241 573 241 452Q241 324 274.5 235.5Q308 147 369.0 101.5Q430 56 510 56ZM504 -20Q378 -20 281.0 36.0Q184 92 129.5 191.5Q75 291 75 420Q75 552 132.0 656.0Q189 760 287.0 819.0Q385 878 509 878Q637 878 733.5 822.0Q830 766 884.5 667.5Q939 569 939 439Q939 306 882.0 202.5Q825 99 727.0 39.5Q629 -20 504 -20Z" transform="translate(249.464,89.5) scale(0.025650,-0.025650)" fill="#111A33"/><path d="M349 695V84L503 37V0H50V37L202 84V681Q186 697 154.0 713.5Q122 730 54 752V777L300 879H320ZM627 37 781 84V563Q781 618 758.0 657.5Q735 697 690.0 718.5Q645 740 579 740Q500 740 432.5 711.0Q365 682 338 641L300 673Q354 730 402.0 769.5Q450 809 495.5 833.0Q541 857 588.5 867.5Q636 878 689 878Q811 878 870.0 800.5Q929 723 929 555V84L1082 37V0H627Z" transform="translate(275.473,89.5) scale(0.025650,-0.025650)" fill="#111A33"/><path d="M758 602Q758 686 698.5 741.5Q639 797 525 797Q436 797 373.0 752.5Q310 708 278.0 627.0Q246 546 246 434Q246 323 281.5 246.0Q317 169 380.0 129.0Q443 89 527 89Q605 89 675.5 113.5Q746 138 813 191V122Q742 78 691.5 49.5Q641 21 603.0 6.0Q565 -9 532.0 -14.5Q499 -20 463 -20Q337 -20 251.0 31.5Q165 83 120.5 174.5Q76 266 76 385Q76 501 113.5 592.0Q151 683 217.0 747.0Q283 811 368.0 844.5Q453 878 548 878Q596 878 642.5 870.0Q689 862 738.5 845.5Q788 829 844 801L758 745V1249Q746 1263 726.5 1276.0Q707 1289 682.0 1301.5Q657 1314 628 1326V1344L896 1421H914L905 1260V139Q914 129 929.5 119.5Q945 110 963.0 101.0Q981 92 999.0 86.0Q1017 80 1033 77V48L791 -16H771L758 135Z" transform="translate(303.662,89.5) scale(0.025650,-0.025650)" fill="#111A33"/><path d="" transform="translate(331.031,89.5) scale(0.025650,-0.025650)" fill="#111A33"/><path d="M892 937 891 674 892 411H820L795 627L309 628V719L795 720L820 937ZM1028 1393H1040L1107 965L1060 956L893 1272L1027 1251H274V1343H916ZM405 1343V90L564 39V0H84V39L243 90V1253L84 1305V1343Z" transform="translate(342.445,89.5) scale(0.025650,-0.025650)" fill="#111A33"/><path d="M330 84 485 37V0H31V37L183 84V1222Q170 1237 149.0 1253.0Q128 1269 97.5 1285.5Q67 1302 28 1318V1338L320 1421H340L330 1261Z" transform="translate(371.815,89.5) scale(0.025650,-0.025650)" fill="#111A33"/><path d="M316 283Q316 222 333.0 186.0Q350 150 391.0 134.5Q432 119 503 119Q571 119 635.0 145.0Q699 171 724 210L762 173Q711 119 667.0 82.0Q623 45 581.5 22.5Q540 0 497.0 -10.0Q454 -20 405 -20Q284 -20 226.5 56.5Q169 133 169 287V761L26 820V859L325 873L316 763ZM725 -16 710 166V761L567 820V859L869 873L859 763V139Q868 129 883.0 119.5Q898 110 916.0 101.0Q934 92 952.5 86.0Q971 80 987 77V48L744 -16Z" transform="translate(384.999,89.5) scale(0.025650,-0.025650)" fill="#111A33"/><path d="M477 878Q574 878 645.5 835.0Q717 792 759.5 709.5Q802 627 812 508H198L200 575L715 598L647 556Q640 629 618.5 684.0Q597 739 558.5 769.5Q520 800 461 800Q391 800 338.0 761.5Q285 723 255.5 648.5Q226 574 226 466Q226 353 269.5 271.0Q313 189 391.0 145.0Q469 101 573 101Q612 101 649.0 111.0Q686 121 722.5 141.5Q759 162 793 192L818 165Q767 102 714.5 60.5Q662 19 604.0 -0.5Q546 -20 478 -20Q362 -20 271.0 36.5Q180 93 127.5 191.5Q75 290 75 417Q75 544 123.5 648.5Q172 753 262.0 815.5Q352 878 477 878Z" transform="translate(411.367,89.5) scale(0.025650,-0.025650)" fill="#111A33"/><path d="M349 695V84L503 37V0H50V37L202 84V681Q186 697 154.0 713.5Q122 730 54 752V777L300 879H320ZM627 37 781 84V563Q781 618 758.0 657.5Q735 697 690.0 718.5Q645 740 579 740Q500 740 432.5 711.0Q365 682 338 641L300 673Q354 730 402.0 769.5Q450 809 495.5 833.0Q541 857 588.5 867.5Q636 878 689 878Q811 878 870.0 800.5Q929 723 929 555V84L1082 37V0H627Z" transform="translate(434.016,89.5) scale(0.025650,-0.025650)" fill="#111A33"/><path d="M548 878Q630 878 679.0 859.5Q728 841 750.0 814.0Q772 787 772 760Q772 732 760.5 711.0Q749 690 728.0 678.5Q707 667 680 667Q651 667 628.5 680.0Q606 693 586.0 711.5Q566 730 546.5 749.0Q527 768 503.5 781.0Q480 794 450 794Q395 794 343.0 761.0Q291 728 258.0 660.0Q225 592 225 489Q225 369 265.0 282.0Q305 195 378.0 148.0Q451 101 551 101Q606 101 659.5 124.5Q713 148 762 192L786 165Q737 102 687.0 60.5Q637 19 580.5 -0.5Q524 -20 458 -20Q346 -20 259.5 35.5Q173 91 124.0 187.5Q75 284 75 405Q75 501 106.5 586.5Q138 672 197.5 737.5Q257 803 345.5 840.5Q434 878 548 878Z" transform="translate(462.205,89.5) scale(0.025650,-0.025650)" fill="#111A33"/><path d="M578 149 501 -37 132 769 8 816V858H422V816L291 774ZM221 -528Q169 -528 135.0 -499.0Q101 -470 101 -421Q101 -395 111.5 -375.5Q122 -356 140.0 -344.5Q158 -333 177 -333Q198 -333 214.5 -342.0Q231 -351 249.5 -360.0Q268 -369 291 -369Q313 -369 331.5 -360.0Q350 -351 367.5 -327.0Q385 -303 402 -259L518 35L566 163L791 779L659 816V858H984V816L878 779L497 -218Q451 -338 408.5 -405.5Q366 -473 320.5 -500.5Q275 -528 221 -528Z" transform="translate(483.572,89.5) scale(0.025650,-0.025650)" fill="#111A33"/><path d="M648 1258 267 0H-36L-24 37L139 85L495 1261L355 1306L367 1343H822L811 1306ZM728 67 1027 382 1062 361 861 -59H846L749 0H192L221 87H807Z" transform="translate(170.900,129.39999999999998) scale(0.017100,-0.017100)" fill="#111A33"/><path d="M490 46 594 370H620Q544 258 483.5 183.0Q423 108 373.5 64.0Q324 20 282.0 1.5Q240 -17 201 -17Q147 -17 107.0 3.0Q67 23 45.0 66.5Q23 110 23 180Q23 256 52.5 347.5Q82 439 134.0 529.5Q186 620 256.0 695.5Q326 771 408.5 816.5Q491 862 580 862Q638 862 676.0 841.5Q714 821 745 779L707 726Q698 751 670.5 770.5Q643 790 600 790Q529 790 464.5 745.0Q400 700 346.5 627.5Q293 555 254.0 473.0Q215 391 193.5 315.5Q172 240 172 189Q172 146 196.5 124.5Q221 103 258 103Q291 103 341.5 131.5Q392 160 446.5 211.0Q501 262 549.0 332.5Q597 403 625 485L744 855L862 858H882L629 72L612 109Q644 104 687.0 117.0Q730 130 777.0 159.5Q824 189 869 231L896 200Q788 77 708.5 28.5Q629 -20 562 -20Q519 -20 499.5 -2.0Q480 16 490 46Z" transform="translate(189.915,129.39999999999998) scale(0.017100,-0.017100)" fill="#111A33"/><path d="M225 313Q212 270 206.5 233.0Q201 196 201 168Q201 106 227.5 75.5Q254 45 306 45Q360 45 416.0 80.0Q472 115 522.5 173.5Q573 232 613.0 306.0Q653 380 676.0 459.0Q699 538 699 612Q699 680 672.0 715.0Q645 750 590 750Q554 750 512.5 729.0Q471 708 430.0 670.5Q389 633 352.0 585.5Q315 538 287.0 484.0Q259 430 243 375ZM378 1268Q359 1285 341.0 1298.5Q323 1312 301.5 1324.0Q280 1336 251 1346L258 1370L528 1421H551L284 513L275 548Q347 664 414.5 736.5Q482 809 544.5 843.5Q607 878 662 878Q757 878 804.5 816.0Q852 754 852 657Q852 556 821.5 457.5Q791 359 737.0 273.0Q683 187 613.0 121.0Q543 55 465.5 17.5Q388 -20 309 -20Q202 -20 140.5 44.5Q79 109 79 215Q79 245 84.5 277.5Q90 310 100 344Z" transform="translate(205.767,129.39999999999998) scale(0.017100,-0.017100)" fill="#111A33"/><path d="M55 174H795" stroke="#D8D0C8"/><path d="M187 -257V1401H603V1333L324 1332V-188L603 -189V-257Z" transform="translate(55.000,256) scale(0.020000,-0.020000)" fill="#272422"/><path d="M892 937 891 674 892 411H820L795 627L309 628V719L795 720L820 937ZM1028 1393H1040L1107 965L1060 956L893 1272L1027 1251H274V1343H916ZM405 1343V90L564 39V0H84V39L243 90V1253L84 1305V1343Z" transform="translate(67.640,256) scale(0.020000,-0.020000)" fill="#272422"/><path d="M316 283Q316 222 333.0 186.0Q350 150 391.0 134.5Q432 119 503 119Q571 119 635.0 145.0Q699 171 724 210L762 173Q711 119 667.0 82.0Q623 45 581.5 22.5Q540 0 497.0 -10.0Q454 -20 405 -20Q284 -20 226.5 56.5Q169 133 169 287V761L26 820V859L325 873L316 763ZM725 -16 710 166V761L567 820V859L869 873L859 763V139Q868 129 883.0 119.5Q898 110 916.0 101.0Q934 92 952.5 86.0Q971 80 987 77V48L744 -16Z" transform="translate(90.540,256) scale(0.020000,-0.020000)" fill="#272422"/><path d="M330 84 485 37V0H31V37L183 84V1222Q170 1237 149.0 1253.0Q128 1269 97.5 1285.5Q67 1302 28 1318V1338L320 1421H340L330 1261Z" transform="translate(111.100,256) scale(0.020000,-0.020000)" fill="#272422"/><path d="M330 84 485 37V0H31V37L183 84V1222Q170 1237 149.0 1253.0Q128 1269 97.5 1285.5Q67 1302 28 1318V1338L320 1421H340L330 1261Z" transform="translate(121.380,256) scale(0.020000,-0.020000)" fill="#272422"/><path d="" transform="translate(131.660,256) scale(0.020000,-0.020000)" fill="#272422"/><path d="M349 695V84L503 37V0H50V37L202 84V681Q186 697 154.0 713.5Q122 730 54 752V777L300 879H320ZM627 37 781 84V563Q781 618 758.0 657.5Q735 697 690.0 718.5Q645 740 579 740Q500 740 432.5 711.0Q365 682 338 641L300 673Q354 730 402.0 769.5Q450 809 495.5 833.0Q541 857 588.5 867.5Q636 878 689 878Q811 878 870.0 800.5Q929 723 929 555V84L1082 37V0H627Z" transform="translate(140.560,256) scale(0.020000,-0.020000)" fill="#272422"/><path d="M606 548 622 479Q503 451 427.5 423.0Q352 395 310.0 365.5Q268 336 251.5 303.0Q235 270 235 231Q235 162 275.5 126.0Q316 90 375 90Q422 90 461.0 114.0Q500 138 524.0 177.0Q548 216 548 262V625Q548 698 510.5 741.5Q473 785 387 785Q356 785 316.5 775.5Q277 766 241 747L292 793Q289 765 283.5 736.5Q278 708 270.5 685.5Q263 663 251 651Q236 634 211.5 626.0Q187 618 163 618Q132 618 114.0 632.5Q96 647 96 669Q96 701 127.0 735.5Q158 770 208.5 801.0Q259 832 321.5 851.0Q384 870 448 870Q536 870 590.5 843.0Q645 816 670.0 764.5Q695 713 695 637V175Q695 144 704.0 123.5Q713 103 730.5 92.5Q748 82 774 82Q797 82 824.0 91.5Q851 101 876 116V71Q834 24 788.0 3.0Q742 -18 703 -18Q654 -18 619.5 3.5Q585 25 567.0 66.0Q549 107 549 163L555 172Q542 116 506.5 72.5Q471 29 421.5 4.5Q372 -20 315 -20Q214 -20 148.5 36.5Q83 93 83 199Q83 255 105.5 301.0Q128 347 185.5 388.0Q243 429 345.0 468.0Q447 507 606 548Z" transform="translate(162.540,256) scale(0.020000,-0.020000)" fill="#272422"/><path d="M349 695V84L494 37V0H50V37L202 84V681Q186 697 154.0 713.5Q122 730 54 752V777L300 879H320ZM888 638V84L1032 37V0H595V37L740 84V577Q740 632 716.5 668.0Q693 704 651.5 722.0Q610 740 556 740Q487 740 423.5 714.5Q360 689 335 649L299 686Q350 739 394.5 776.0Q439 813 482.0 835.5Q525 858 569.0 868.0Q613 878 663 878Q745 878 794.0 843.5Q843 809 865.5 754.0Q888 699 888 638ZM1426 581V84L1580 37V0H1134V37L1279 84V577Q1279 633 1255.5 668.5Q1232 704 1190.5 722.0Q1149 740 1094 740Q1026 740 962.5 714.5Q899 689 874 649L838 686Q889 739 933.5 776.0Q978 813 1021.0 835.5Q1064 858 1108.0 868.0Q1152 878 1202 878Q1322 878 1374.0 801.0Q1426 724 1426 581Z" transform="translate(179.940,256) scale(0.020000,-0.020000)" fill="#272422"/><path d="M477 878Q574 878 645.5 835.0Q717 792 759.5 709.5Q802 627 812 508H198L200 575L715 598L647 556Q640 629 618.5 684.0Q597 739 558.5 769.5Q520 800 461 800Q391 800 338.0 761.5Q285 723 255.5 648.5Q226 574 226 466Q226 353 269.5 271.0Q313 189 391.0 145.0Q469 101 573 101Q612 101 649.0 111.0Q686 121 722.5 141.5Q759 162 793 192L818 165Q767 102 714.5 60.5Q662 19 604.0 -0.5Q546 -20 478 -20Q362 -20 271.0 36.5Q180 93 127.5 191.5Q75 290 75 417Q75 544 123.5 648.5Q172 753 262.0 815.5Q352 878 477 878Z" transform="translate(211.880,256) scale(0.020000,-0.020000)" fill="#272422"/><path d="M447 1402V-256H31V-188L310 -187V1333L31 1334V1402Z" transform="translate(229.540,256) scale(0.020000,-0.020000)" fill="#272422"/><path d="M198 -282V1578H622V1400H409V-105H622V-282Z" transform="translate(55.000,292) scale(0.007812,-0.007812)" fill="#111A33"/><path d="M158 0V1490H700Q869 1490 984.5 1431.0Q1100 1372 1158.5 1266.5Q1217 1161 1217 1023Q1217 884 1157.0 780.5Q1097 677 981.0 620.0Q865 563 695 563H289V757H679Q786 757 854.0 788.5Q922 820 955.0 880.0Q988 940 988 1023Q988 1107 955.0 1168.0Q922 1229 853.5 1262.0Q785 1295 677 1295H386V0ZM1008 0 649 673H900L1266 0Z" transform="translate(60.695,292) scale(0.007812,-0.007812)" fill="#111A33"/><path d="M608 -23Q452 -23 335.5 48.5Q219 120 154.5 248.5Q90 377 90 547Q90 719 154.5 848.0Q219 977 335.5 1048.5Q452 1120 608 1120Q765 1120 881.5 1048.5Q998 977 1062.5 848.0Q1127 719 1127 547Q1127 377 1062.5 248.5Q998 120 881.5 48.5Q765 -23 608 -23ZM608 162Q707 162 773.5 213.5Q840 265 873.0 352.5Q906 440 906 547Q906 656 873.0 743.5Q840 831 773.5 883.0Q707 935 608 935Q509 935 443.5 883.0Q378 831 345.0 743.5Q312 656 312 547Q312 440 345.0 352.5Q378 265 443.5 213.5Q509 162 608 162Z" transform="translate(71.031,292) scale(0.007812,-0.007812)" fill="#111A33"/><path d="M360 1490V0H141V1490Z" transform="translate(80.539,292) scale(0.007812,-0.007812)" fill="#111A33"/><path d="M617 -23Q453 -23 335.0 48.0Q217 119 153.5 247.0Q90 375 90 546Q90 715 153.0 844.5Q216 974 331.0 1047.0Q446 1120 599 1120Q699 1120 788.5 1087.0Q878 1054 947.5 985.5Q1017 917 1057.0 811.5Q1097 706 1097 561V487H206V651H984L884 598Q884 699 851.5 776.5Q819 854 755.5 897.0Q692 940 600 940Q508 940 442.5 896.0Q377 852 342.0 779.0Q307 706 307 616V509Q307 398 345.5 319.0Q384 240 454.5 198.5Q525 157 619 157Q682 157 733.0 175.5Q784 194 820.0 230.0Q856 266 874 318L1080 280Q1055 190 991.0 121.5Q927 53 831.5 15.0Q736 -23 617 -23Z" transform="translate(84.453,292) scale(0.007812,-0.007812)" fill="#111A33"/><path d="" transform="translate(93.695,292) scale(0.007812,-0.007812)" fill="#111A33"/><path d="M709 1560 229 -224H33L513 1560Z" transform="translate(97.859,292) scale(0.007812,-0.007812)" fill="#111A33"/><path d="" transform="translate(103.664,292) scale(0.007812,-0.007812)" fill="#111A33"/><path d="M627 1104V926H19V1104ZM187 1375H406V297Q406 232 433.0 202.0Q460 172 525 172Q544 172 572.0 175.5Q600 179 620 182L651 6Q617 -3 578.0 -7.0Q539 -11 501 -11Q350 -11 268.5 63.5Q187 138 187 277Z" transform="translate(107.828,292) scale(0.007812,-0.007812)" fill="#111A33"/><path d="M141 0V1104H360V0ZM251 1277Q194 1277 154.0 1315.5Q114 1354 114 1408Q114 1463 154.0 1500.5Q194 1538 251 1538Q308 1538 348.0 1500.5Q388 1463 388 1408Q388 1354 348.0 1315.5Q308 1277 251 1277Z" transform="translate(113.234,292) scale(0.007812,-0.007812)" fill="#111A33"/><path d="M627 1104V926H19V1104ZM187 1375H406V297Q406 232 433.0 202.0Q460 172 525 172Q544 172 572.0 175.5Q600 179 620 182L651 6Q617 -3 578.0 -7.0Q539 -11 501 -11Q350 -11 268.5 63.5Q187 138 187 277Z" transform="translate(117.148,292) scale(0.007812,-0.007812)" fill="#111A33"/><path d="M360 1490V0H141V1490Z" transform="translate(122.555,292) scale(0.007812,-0.007812)" fill="#111A33"/><path d="M617 -23Q453 -23 335.0 48.0Q217 119 153.5 247.0Q90 375 90 546Q90 715 153.0 844.5Q216 974 331.0 1047.0Q446 1120 599 1120Q699 1120 788.5 1087.0Q878 1054 947.5 985.5Q1017 917 1057.0 811.5Q1097 706 1097 561V487H206V651H984L884 598Q884 699 851.5 776.5Q819 854 755.5 897.0Q692 940 600 940Q508 940 442.5 896.0Q377 852 342.0 779.0Q307 706 307 616V509Q307 398 345.5 319.0Q384 240 454.5 198.5Q525 157 619 157Q682 157 733.0 175.5Q784 194 820.0 230.0Q856 266 874 318L1080 280Q1055 190 991.0 121.5Q927 53 831.5 15.0Q736 -23 617 -23Z" transform="translate(126.469,292) scale(0.007812,-0.007812)" fill="#111A33"/><path d="M107 -282V-105H320V1400H107V1578H531V-282Z" transform="translate(135.711,292) scale(0.007812,-0.007812)" fill="#111A33"/><path d="M211 -282V1578H604V1426H383V-131H604V-282Z" transform="translate(55.000,390) scale(0.007812,-0.007812)" fill="#272422"/><path d="M173 0V1490H1094V1324H361V838H1043V671H361V166H1101V0Z" transform="translate(60.602,390) scale(0.007812,-0.007812)" fill="#272422"/><path d="M151 0V1104H324L325 862H309Q334 950 383.5 1008.0Q433 1066 499.5 1095.0Q566 1124 638 1124Q760 1124 838.0 1050.0Q916 976 938 860H911Q932 940 984.0 999.5Q1036 1059 1110.5 1091.5Q1185 1124 1274 1124Q1371 1124 1451.0 1082.0Q1531 1040 1578.5 955.0Q1626 870 1626 740V0H1448V736Q1448 858 1380.0 910.0Q1312 962 1222 962Q1146 962 1091.5 930.5Q1037 899 1007.0 843.5Q977 788 977 717V0H800V754Q800 848 737.5 905.0Q675 962 580 962Q514 962 456.5 931.5Q399 901 364.0 840.5Q329 780 329 691V0Z" transform="translate(70.141,390) scale(0.007812,-0.007812)" fill="#272422"/><path d="M466 -24Q360 -24 274.5 15.0Q189 54 138.5 130.0Q88 206 88 315Q88 410 125.5 469.0Q163 528 225.5 562.5Q288 597 364.5 614.0Q441 631 519 641Q620 654 681.5 661.0Q743 668 772.5 684.5Q802 701 802 742V749Q802 816 775.5 864.0Q749 912 697.0 937.5Q645 963 568 963Q489 963 432.5 938.5Q376 914 340.5 875.5Q305 837 291 794L118 839Q152 940 221.0 1001.5Q290 1063 379.5 1091.5Q469 1120 564 1120Q628 1120 700.0 1103.5Q772 1087 835.5 1046.0Q899 1005 939.0 929.5Q979 854 979 735V0H804V152H794Q775 113 734.0 72.0Q693 31 627.0 3.5Q561 -24 466 -24ZM495 134Q596 134 664.0 172.5Q732 211 767.0 273.0Q802 335 802 403V553Q791 541 756.5 531.0Q722 521 676.5 513.0Q631 505 586.5 499.5Q542 494 511 490Q447 482 391.0 462.5Q335 443 301.0 406.0Q267 369 267 306Q267 250 296.5 211.5Q326 173 377.0 153.5Q428 134 495 134Z" transform="translate(84.023,390) scale(0.007812,-0.007812)" fill="#272422"/><path d="M151 0V1104H329V0ZM240 1292Q190 1292 153.5 1327.0Q117 1362 117 1411Q117 1460 153.5 1494.5Q190 1529 240 1529Q291 1529 327.5 1494.5Q364 1460 364 1411Q364 1362 327.5 1327.0Q291 1292 240 1292Z" transform="translate(92.852,390) scale(0.007812,-0.007812)" fill="#272422"/><path d="M329 1490V0H151V1490Z" transform="translate(96.602,390) scale(0.007812,-0.007812)" fill="#272422"/><path d="" transform="translate(100.352,390) scale(0.007812,-0.007812)" fill="#272422"/><path d="M466 -24Q360 -24 274.5 15.0Q189 54 138.5 130.0Q88 206 88 315Q88 410 125.5 469.0Q163 528 225.5 562.5Q288 597 364.5 614.0Q441 631 519 641Q620 654 681.5 661.0Q743 668 772.5 684.5Q802 701 802 742V749Q802 816 775.5 864.0Q749 912 697.0 937.5Q645 963 568 963Q489 963 432.5 938.5Q376 914 340.5 875.5Q305 837 291 794L118 839Q152 940 221.0 1001.5Q290 1063 379.5 1091.5Q469 1120 564 1120Q628 1120 700.0 1103.5Q772 1087 835.5 1046.0Q899 1005 939.0 929.5Q979 854 979 735V0H804V152H794Q775 113 734.0 72.0Q693 31 627.0 3.5Q561 -24 466 -24ZM495 134Q596 134 664.0 172.5Q732 211 767.0 273.0Q802 335 802 403V553Q791 541 756.5 531.0Q722 521 676.5 513.0Q631 505 586.5 499.5Q542 494 511 490Q447 482 391.0 462.5Q335 443 301.0 406.0Q267 369 267 306Q267 250 296.5 211.5Q326 173 377.0 153.5Q428 134 495 134Z" transform="translate(104.742,390) scale(0.007812,-0.007812)" fill="#272422"/><path d="M567 -23Q428 -23 322.0 47.5Q216 118 156.5 246.5Q97 375 97 550Q97 724 156.5 852.0Q216 980 322.5 1050.0Q429 1120 567 1120Q667 1120 731.0 1087.5Q795 1055 833.0 1011.0Q871 967 893 930H904V1490H1082V0H910V170H894Q871 132 832.0 87.0Q793 42 729.0 9.5Q665 -23 567 -23ZM593 136Q694 136 764.5 188.5Q835 241 872.0 334.5Q909 428 909 551Q909 674 872.5 766.0Q836 858 765.5 909.5Q695 961 593 961Q491 961 420.5 908.0Q350 855 313.5 762.5Q277 670 277 551Q277 432 313.5 338.0Q350 244 421.0 190.0Q492 136 593 136Z" transform="translate(113.570,390) scale(0.007812,-0.007812)" fill="#272422"/><path d="M567 -23Q428 -23 322.0 47.5Q216 118 156.5 246.5Q97 375 97 550Q97 724 156.5 852.0Q216 980 322.5 1050.0Q429 1120 567 1120Q667 1120 731.0 1087.5Q795 1055 833.0 1011.0Q871 967 893 930H904V1490H1082V0H910V170H894Q871 132 832.0 87.0Q793 42 729.0 9.5Q665 -23 567 -23ZM593 136Q694 136 764.5 188.5Q835 241 872.0 334.5Q909 428 909 551Q909 674 872.5 766.0Q836 858 765.5 909.5Q695 961 593 961Q491 961 420.5 908.0Q350 855 313.5 762.5Q277 670 277 551Q277 432 313.5 338.0Q350 244 421.0 190.0Q492 136 593 136Z" transform="translate(123.203,390) scale(0.007812,-0.007812)" fill="#272422"/><path d="M151 0V1104H322V934H332Q363 1018 439.0 1069.0Q515 1120 614 1120Q635 1120 661.0 1119.0Q687 1118 701 1117V938Q693 940 661.5 944.0Q630 948 594 948Q519 948 458.5 916.0Q398 884 363.5 826.0Q329 768 329 689V0Z" transform="translate(132.836,390) scale(0.007812,-0.007812)" fill="#272422"/><path d="M613 -24Q453 -24 337.0 48.0Q221 120 159.0 248.0Q97 376 97 545Q97 714 158.5 844.0Q220 974 332.5 1047.0Q445 1120 594 1120Q688 1120 775.0 1088.5Q862 1057 931.0 989.5Q1000 922 1040.0 816.0Q1080 710 1080 563V494H212V644H983L902 590Q902 699 866.5 783.0Q831 867 762.5 914.5Q694 962 594 962Q495 962 423.5 914.0Q352 866 314.0 786.5Q276 707 276 612V518Q276 397 317.5 311.0Q359 225 435.5 180.0Q512 135 614 135Q682 135 736.5 155.0Q791 175 830.0 214.0Q869 253 889 310L1062 272Q1037 185 975.0 118.0Q913 51 820.5 13.5Q728 -24 613 -24Z" transform="translate(138.664,390) scale(0.007812,-0.007812)" fill="#272422"/><path d="M528 -24Q414 -24 324.0 10.5Q234 45 176.0 113.0Q118 181 101 281L271 313Q292 220 357.5 175.5Q423 131 526 131Q641 131 709.5 180.5Q778 230 778 299Q778 357 736.5 395.0Q695 433 615 451L432 495Q281 530 207.0 605.5Q133 681 133 798Q133 893 185.5 965.5Q238 1038 330.0 1079.0Q422 1120 540 1120Q654 1120 736.0 1084.0Q818 1048 868.5 984.0Q919 920 939 836L776 803Q758 868 702.5 918.5Q647 969 541 969Q441 969 376.5 923.0Q312 877 312 807Q312 745 357.0 708.0Q402 671 495 649L664 609Q816 573 888.5 498.5Q961 424 961 309Q961 211 906.0 136.0Q851 61 753.5 18.5Q656 -24 528 -24Z" transform="translate(147.828,390) scale(0.007812,-0.007812)" fill="#272422"/><path d="M528 -24Q414 -24 324.0 10.5Q234 45 176.0 113.0Q118 181 101 281L271 313Q292 220 357.5 175.5Q423 131 526 131Q641 131 709.5 180.5Q778 230 778 299Q778 357 736.5 395.0Q695 433 615 451L432 495Q281 530 207.0 605.5Q133 681 133 798Q133 893 185.5 965.5Q238 1038 330.0 1079.0Q422 1120 540 1120Q654 1120 736.0 1084.0Q818 1048 868.5 984.0Q919 920 939 836L776 803Q758 868 702.5 918.5Q647 969 541 969Q441 969 376.5 923.0Q312 877 312 807Q312 745 357.0 708.0Q402 671 495 649L664 609Q816 573 888.5 498.5Q961 424 961 309Q961 211 906.0 136.0Q851 61 753.5 18.5Q656 -24 528 -24Z" transform="translate(156.086,390) scale(0.007812,-0.007812)" fill="#272422"/><path d="M113 -282V-131H334V1426H113V1578H506V-282Z" transform="translate(164.344,390) scale(0.007812,-0.007812)" fill="#272422"/><path d="" transform="translate(169.945,390) scale(0.007812,-0.007812)" fill="#272422"/><path d="" transform="translate(174.336,390) scale(0.007812,-0.007812)" fill="#272422"/><path d="M279 575Q224 575 185.5 614.0Q147 653 147 708Q147 763 185.5 802.0Q224 841 279 841Q335 841 373.5 802.0Q412 763 412 708Q412 653 373.5 614.0Q335 575 279 575Z" transform="translate(178.727,390) scale(0.007812,-0.007812)" fill="#272422"/><path d="" transform="translate(183.094,390) scale(0.007812,-0.007812)" fill="#272422"/><path d="" transform="translate(187.484,390) scale(0.007812,-0.007812)" fill="#272422"/><path d="M211 -282V1578H604V1426H383V-131H604V-282Z" transform="translate(191.875,390) scale(0.007812,-0.007812)" fill="#272422"/><path d="M173 0V1490H688Q858 1490 971.0 1428.5Q1084 1367 1140.0 1261.0Q1196 1155 1196 1021Q1196 887 1139.5 780.0Q1083 673 970.0 611.0Q857 549 687 549H310V715H681Q796 715 868.5 754.0Q941 793 975.0 862.5Q1009 932 1009 1021Q1009 1110 975.0 1178.5Q941 1247 868.0 1286.0Q795 1325 679 1325H361V0Z" transform="translate(197.477,390) scale(0.007812,-0.007812)" fill="#272422"/><path d="M329 658V0H151V1490H329V837H293Q344 989 438.0 1054.5Q532 1120 659 1120Q771 1120 857.0 1073.5Q943 1027 991.5 933.5Q1040 840 1040 698V0H861V684Q861 814 794.0 886.5Q727 959 610 959Q530 959 466.5 925.0Q403 891 366.0 824.0Q329 757 329 658Z" transform="translate(207.602,390) scale(0.007812,-0.007812)" fill="#272422"/><path d="M602 -24Q451 -24 337.5 47.5Q224 119 160.5 248.0Q97 377 97 546Q97 718 160.5 847.5Q224 977 337.5 1048.5Q451 1120 602 1120Q753 1120 867.0 1048.5Q981 977 1044.5 847.5Q1108 718 1108 546Q1108 377 1044.5 248.0Q981 119 867.0 47.5Q753 -24 602 -24ZM602 135Q712 135 784.5 191.0Q857 247 892.5 340.5Q928 434 928 546Q928 659 892.5 753.5Q857 848 784.5 904.5Q712 961 602 961Q493 961 421.0 904.5Q349 848 313.0 754.0Q277 660 277 546Q277 434 313.0 340.5Q349 247 420.5 191.0Q492 135 602 135Z" transform="translate(216.906,390) scale(0.007812,-0.007812)" fill="#272422"/><path d="M329 658V0H151V1104H322L323 837H293Q344 989 438.0 1054.5Q532 1120 659 1120Q771 1120 856.5 1073.5Q942 1027 990.5 933.5Q1039 840 1039 698V0H861V684Q861 814 794.0 886.5Q727 959 610 959Q530 959 466.5 925.0Q403 891 366.0 824.0Q329 757 329 658Z" transform="translate(226.320,390) scale(0.007812,-0.007812)" fill="#272422"/><path d="M613 -24Q453 -24 337.0 48.0Q221 120 159.0 248.0Q97 376 97 545Q97 714 158.5 844.0Q220 974 332.5 1047.0Q445 1120 594 1120Q688 1120 775.0 1088.5Q862 1057 931.0 989.5Q1000 922 1040.0 816.0Q1080 710 1080 563V494H212V644H983L902 590Q902 699 866.5 783.0Q831 867 762.5 914.5Q694 962 594 962Q495 962 423.5 914.0Q352 866 314.0 786.5Q276 707 276 612V518Q276 397 317.5 311.0Q359 225 435.5 180.0Q512 135 614 135Q682 135 736.5 155.0Q791 175 830.0 214.0Q869 253 889 310L1062 272Q1037 185 975.0 118.0Q913 51 820.5 13.5Q728 -24 613 -24Z" transform="translate(235.617,390) scale(0.007812,-0.007812)" fill="#272422"/><path d="" transform="translate(244.781,390) scale(0.007812,-0.007812)" fill="#272422"/><path d="M329 658V0H151V1104H322L323 837H293Q344 989 438.0 1054.5Q532 1120 659 1120Q771 1120 856.5 1073.5Q942 1027 990.5 933.5Q1039 840 1039 698V0H861V684Q861 814 794.0 886.5Q727 959 610 959Q530 959 466.5 925.0Q403 891 366.0 824.0Q329 757 329 658Z" transform="translate(249.172,390) scale(0.007812,-0.007812)" fill="#272422"/><path d="M532 -15Q420 -15 334.0 31.5Q248 78 199.5 171.5Q151 265 151 406V1104H329V421Q329 290 396.5 217.5Q464 145 581 145Q660 145 723.5 179.5Q787 214 824.0 281.0Q861 348 861 446V1104H1040V0H868V268H897Q845 114 750.0 49.5Q655 -15 532 -15Z" transform="translate(258.469,390) scale(0.007812,-0.007812)" fill="#272422"/><path d="M151 0V1104H324L325 862H309Q334 950 383.5 1008.0Q433 1066 499.5 1095.0Q566 1124 638 1124Q760 1124 838.0 1050.0Q916 976 938 860H911Q932 940 984.0 999.5Q1036 1059 1110.5 1091.5Q1185 1124 1274 1124Q1371 1124 1451.0 1082.0Q1531 1040 1578.5 955.0Q1626 870 1626 740V0H1448V736Q1448 858 1380.0 910.0Q1312 962 1222 962Q1146 962 1091.5 930.5Q1037 899 1007.0 843.5Q977 788 977 717V0H800V754Q800 848 737.5 905.0Q675 962 580 962Q514 962 456.5 931.5Q399 901 364.0 840.5Q329 780 329 691V0Z" transform="translate(267.773,390) scale(0.007812,-0.007812)" fill="#272422"/><path d="M666 -23Q569 -23 504.5 9.5Q440 42 401.0 87.0Q362 132 339 170H323V0H151V1490H329V930H340Q362 967 400.0 1011.0Q438 1055 501.5 1087.5Q565 1120 665 1120Q805 1120 910.5 1050.0Q1016 980 1076.0 852.0Q1136 724 1136 550Q1136 375 1076.5 246.5Q1017 118 911.5 47.5Q806 -23 666 -23ZM639 136Q741 136 811.5 190.0Q882 244 918.5 338.0Q955 432 955 551Q955 670 919.0 762.5Q883 855 812.5 908.0Q742 961 639 961Q537 961 467.0 909.5Q397 858 360.5 766.0Q324 674 324 551Q324 428 360.5 334.5Q397 241 468.0 188.5Q539 136 639 136Z" transform="translate(281.656,390) scale(0.007812,-0.007812)" fill="#272422"/><path d="M613 -24Q453 -24 337.0 48.0Q221 120 159.0 248.0Q97 376 97 545Q97 714 158.5 844.0Q220 974 332.5 1047.0Q445 1120 594 1120Q688 1120 775.0 1088.5Q862 1057 931.0 989.5Q1000 922 1040.0 816.0Q1080 710 1080 563V494H212V644H983L902 590Q902 699 866.5 783.0Q831 867 762.5 914.5Q694 962 594 962Q495 962 423.5 914.0Q352 866 314.0 786.5Q276 707 276 612V518Q276 397 317.5 311.0Q359 225 435.5 180.0Q512 135 614 135Q682 135 736.5 155.0Q791 175 830.0 214.0Q869 253 889 310L1062 272Q1037 185 975.0 118.0Q913 51 820.5 13.5Q728 -24 613 -24Z" transform="translate(291.289,390) scale(0.007812,-0.007812)" fill="#272422"/><path d="M151 0V1104H322V934H332Q363 1018 439.0 1069.0Q515 1120 614 1120Q635 1120 661.0 1119.0Q687 1118 701 1117V938Q693 940 661.5 944.0Q630 948 594 948Q519 948 458.5 916.0Q398 884 363.5 826.0Q329 768 329 689V0Z" transform="translate(300.453,390) scale(0.007812,-0.007812)" fill="#272422"/><path d="M113 -282V-131H334V1426H113V1578H506V-282Z" transform="translate(306.281,390) scale(0.007812,-0.007812)" fill="#272422"/><path d="M211 -282V1578H604V1426H383V-131H604V-282Z" transform="translate(55.000,421) scale(0.007812,-0.007812)" fill="#272422"/><path d="M593 0 45 1490H243L559 603Q586 528 626.5 402.0Q667 276 723 90H683Q738 279 778.0 403.5Q818 528 844 603L1153 1490H1351L809 0Z" transform="translate(60.602,421) scale(0.007812,-0.007812)" fill="#272422"/><path d="M613 -24Q453 -24 337.0 48.0Q221 120 159.0 248.0Q97 376 97 545Q97 714 158.5 844.0Q220 974 332.5 1047.0Q445 1120 594 1120Q688 1120 775.0 1088.5Q862 1057 931.0 989.5Q1000 922 1040.0 816.0Q1080 710 1080 563V494H212V644H983L902 590Q902 699 866.5 783.0Q831 867 762.5 914.5Q694 962 594 962Q495 962 423.5 914.0Q352 866 314.0 786.5Q276 707 276 612V518Q276 397 317.5 311.0Q359 225 435.5 180.0Q512 135 614 135Q682 135 736.5 155.0Q791 175 830.0 214.0Q869 253 889 310L1062 272Q1037 185 975.0 118.0Q913 51 820.5 13.5Q728 -24 613 -24Z" transform="translate(71.508,421) scale(0.007812,-0.007812)" fill="#272422"/><path d="M151 0V1104H322V934H332Q363 1018 439.0 1069.0Q515 1120 614 1120Q635 1120 661.0 1119.0Q687 1118 701 1117V938Q693 940 661.5 944.0Q630 948 594 948Q519 948 458.5 916.0Q398 884 363.5 826.0Q329 768 329 689V0Z" transform="translate(80.672,421) scale(0.007812,-0.007812)" fill="#272422"/><path d="M151 0V1104H329V0ZM240 1292Q190 1292 153.5 1327.0Q117 1362 117 1411Q117 1460 153.5 1494.5Q190 1529 240 1529Q291 1529 327.5 1494.5Q364 1460 364 1411Q364 1362 327.5 1327.0Q291 1292 240 1292Z" transform="translate(86.500,421) scale(0.007812,-0.007812)" fill="#272422"/><path d="M658 1104V952H19V1104ZM232 0V1262Q232 1354 275.0 1417.0Q318 1480 388.5 1512.0Q459 1544 541 1544Q598 1544 638.0 1536.0Q678 1528 695 1521L656 1369Q643 1373 618.5 1377.5Q594 1382 561 1382Q481 1382 445.5 1342.5Q410 1303 410 1225V0Z" transform="translate(90.250,421) scale(0.007812,-0.007812)" fill="#272422"/><path d="M151 0V1104H329V0ZM240 1292Q190 1292 153.5 1327.0Q117 1362 117 1411Q117 1460 153.5 1494.5Q190 1529 240 1529Q291 1529 327.5 1494.5Q364 1460 364 1411Q364 1362 327.5 1327.0Q291 1292 240 1292Z" transform="translate(95.945,421) scale(0.007812,-0.007812)" fill="#272422"/><path d="M613 -24Q453 -24 337.0 48.0Q221 120 159.0 248.0Q97 376 97 545Q97 714 158.5 844.0Q220 974 332.5 1047.0Q445 1120 594 1120Q688 1120 775.0 1088.5Q862 1057 931.0 989.5Q1000 922 1040.0 816.0Q1080 710 1080 563V494H212V644H983L902 590Q902 699 866.5 783.0Q831 867 762.5 914.5Q694 962 594 962Q495 962 423.5 914.0Q352 866 314.0 786.5Q276 707 276 612V518Q276 397 317.5 311.0Q359 225 435.5 180.0Q512 135 614 135Q682 135 736.5 155.0Q791 175 830.0 214.0Q869 253 889 310L1062 272Q1037 185 975.0 118.0Q913 51 820.5 13.5Q728 -24 613 -24Z" transform="translate(99.695,421) scale(0.007812,-0.007812)" fill="#272422"/><path d="M567 -23Q428 -23 322.0 47.5Q216 118 156.5 246.5Q97 375 97 550Q97 724 156.5 852.0Q216 980 322.5 1050.0Q429 1120 567 1120Q667 1120 731.0 1087.5Q795 1055 833.0 1011.0Q871 967 893 930H904V1490H1082V0H910V170H894Q871 132 832.0 87.0Q793 42 729.0 9.5Q665 -23 567 -23ZM593 136Q694 136 764.5 188.5Q835 241 872.0 334.5Q909 428 909 551Q909 674 872.5 766.0Q836 858 765.5 909.5Q695 961 593 961Q491 961 420.5 908.0Q350 855 313.5 762.5Q277 670 277 551Q277 432 313.5 338.0Q350 244 421.0 190.0Q492 136 593 136Z" transform="translate(108.859,421) scale(0.007812,-0.007812)" fill="#272422"/><path d="" transform="translate(118.492,421) scale(0.007812,-0.007812)" fill="#272422"/><path d="M398 0 61 1104H249L385 622Q413 520 444.5 396.5Q476 273 506 125H477Q507 268 537.5 391.5Q568 515 597 622L731 1104H918L1050 622Q1078 518 1108.5 394.5Q1139 271 1168 125H1137Q1169 270 1200.0 393.0Q1231 516 1261 622L1397 1104H1585L1248 0H1069L926 500Q904 576 883.5 654.5Q863 733 843.0 815.0Q823 897 802 981H844Q824 898 803.5 815.5Q783 733 762.5 654.0Q742 575 720 500L576 0Z" transform="translate(122.883,421) scale(0.007812,-0.007812)" fill="#272422"/><path d="M613 -24Q453 -24 337.0 48.0Q221 120 159.0 248.0Q97 376 97 545Q97 714 158.5 844.0Q220 974 332.5 1047.0Q445 1120 594 1120Q688 1120 775.0 1088.5Q862 1057 931.0 989.5Q1000 922 1040.0 816.0Q1080 710 1080 563V494H212V644H983L902 590Q902 699 866.5 783.0Q831 867 762.5 914.5Q694 962 594 962Q495 962 423.5 914.0Q352 866 314.0 786.5Q276 707 276 612V518Q276 397 317.5 311.0Q359 225 435.5 180.0Q512 135 614 135Q682 135 736.5 155.0Q791 175 830.0 214.0Q869 253 889 310L1062 272Q1037 185 975.0 118.0Q913 51 820.5 13.5Q728 -24 613 -24Z" transform="translate(135.742,421) scale(0.007812,-0.007812)" fill="#272422"/><path d="M666 -23Q569 -23 504.5 9.5Q440 42 401.0 87.0Q362 132 339 170H323V0H151V1490H329V930H340Q362 967 400.0 1011.0Q438 1055 501.5 1087.5Q565 1120 665 1120Q805 1120 910.5 1050.0Q1016 980 1076.0 852.0Q1136 724 1136 550Q1136 375 1076.5 246.5Q1017 118 911.5 47.5Q806 -23 666 -23ZM639 136Q741 136 811.5 190.0Q882 244 918.5 338.0Q955 432 955 551Q955 670 919.0 762.5Q883 855 812.5 908.0Q742 961 639 961Q537 961 467.0 909.5Q397 858 360.5 766.0Q324 674 324 551Q324 428 360.5 334.5Q397 241 468.0 188.5Q539 136 639 136Z" transform="translate(144.906,421) scale(0.007812,-0.007812)" fill="#272422"/><path d="M528 -24Q414 -24 324.0 10.5Q234 45 176.0 113.0Q118 181 101 281L271 313Q292 220 357.5 175.5Q423 131 526 131Q641 131 709.5 180.5Q778 230 778 299Q778 357 736.5 395.0Q695 433 615 451L432 495Q281 530 207.0 605.5Q133 681 133 798Q133 893 185.5 965.5Q238 1038 330.0 1079.0Q422 1120 540 1120Q654 1120 736.0 1084.0Q818 1048 868.5 984.0Q919 920 939 836L776 803Q758 868 702.5 918.5Q647 969 541 969Q441 969 376.5 923.0Q312 877 312 807Q312 745 357.0 708.0Q402 671 495 649L664 609Q816 573 888.5 498.5Q961 424 961 309Q961 211 906.0 136.0Q851 61 753.5 18.5Q656 -24 528 -24Z" transform="translate(154.539,421) scale(0.007812,-0.007812)" fill="#272422"/><path d="M151 0V1104H329V0ZM240 1292Q190 1292 153.5 1327.0Q117 1362 117 1411Q117 1460 153.5 1494.5Q190 1529 240 1529Q291 1529 327.5 1494.5Q364 1460 364 1411Q364 1362 327.5 1327.0Q291 1292 240 1292Z" transform="translate(162.797,421) scale(0.007812,-0.007812)" fill="#272422"/><path d="M596 1104V952H19V1104ZM191 1375H369V282Q369 211 398.5 178.5Q428 146 498 146Q516 146 542.5 149.0Q569 152 591 155L620 5Q592 -3 557.5 -7.0Q523 -11 490 -11Q347 -11 269.0 62.0Q191 135 191 268Z" transform="translate(166.547,421) scale(0.007812,-0.007812)" fill="#272422"/><path d="M613 -24Q453 -24 337.0 48.0Q221 120 159.0 248.0Q97 376 97 545Q97 714 158.5 844.0Q220 974 332.5 1047.0Q445 1120 594 1120Q688 1120 775.0 1088.5Q862 1057 931.0 989.5Q1000 922 1040.0 816.0Q1080 710 1080 563V494H212V644H983L902 590Q902 699 866.5 783.0Q831 867 762.5 914.5Q694 962 594 962Q495 962 423.5 914.0Q352 866 314.0 786.5Q276 707 276 612V518Q276 397 317.5 311.0Q359 225 435.5 180.0Q512 135 614 135Q682 135 736.5 155.0Q791 175 830.0 214.0Q869 253 889 310L1062 272Q1037 185 975.0 118.0Q913 51 820.5 13.5Q728 -24 613 -24Z" transform="translate(171.727,421) scale(0.007812,-0.007812)" fill="#272422"/><path d="" transform="translate(180.891,421) scale(0.007812,-0.007812)" fill="#272422"/><path d="M466 -24Q360 -24 274.5 15.0Q189 54 138.5 130.0Q88 206 88 315Q88 410 125.5 469.0Q163 528 225.5 562.5Q288 597 364.5 614.0Q441 631 519 641Q620 654 681.5 661.0Q743 668 772.5 684.5Q802 701 802 742V749Q802 816 775.5 864.0Q749 912 697.0 937.5Q645 963 568 963Q489 963 432.5 938.5Q376 914 340.5 875.5Q305 837 291 794L118 839Q152 940 221.0 1001.5Q290 1063 379.5 1091.5Q469 1120 564 1120Q628 1120 700.0 1103.5Q772 1087 835.5 1046.0Q899 1005 939.0 929.5Q979 854 979 735V0H804V152H794Q775 113 734.0 72.0Q693 31 627.0 3.5Q561 -24 466 -24ZM495 134Q596 134 664.0 172.5Q732 211 767.0 273.0Q802 335 802 403V553Q791 541 756.5 531.0Q722 521 676.5 513.0Q631 505 586.5 499.5Q542 494 511 490Q447 482 391.0 462.5Q335 443 301.0 406.0Q267 369 267 306Q267 250 296.5 211.5Q326 173 377.0 153.5Q428 134 495 134Z" transform="translate(185.281,421) scale(0.007812,-0.007812)" fill="#272422"/><path d="M567 -23Q428 -23 322.0 47.5Q216 118 156.5 246.5Q97 375 97 550Q97 724 156.5 852.0Q216 980 322.5 1050.0Q429 1120 567 1120Q667 1120 731.0 1087.5Q795 1055 833.0 1011.0Q871 967 893 930H904V1490H1082V0H910V170H894Q871 132 832.0 87.0Q793 42 729.0 9.5Q665 -23 567 -23ZM593 136Q694 136 764.5 188.5Q835 241 872.0 334.5Q909 428 909 551Q909 674 872.5 766.0Q836 858 765.5 909.5Q695 961 593 961Q491 961 420.5 908.0Q350 855 313.5 762.5Q277 670 277 551Q277 432 313.5 338.0Q350 244 421.0 190.0Q492 136 593 136Z" transform="translate(194.109,421) scale(0.007812,-0.007812)" fill="#272422"/><path d="M567 -23Q428 -23 322.0 47.5Q216 118 156.5 246.5Q97 375 97 550Q97 724 156.5 852.0Q216 980 322.5 1050.0Q429 1120 567 1120Q667 1120 731.0 1087.5Q795 1055 833.0 1011.0Q871 967 893 930H904V1490H1082V0H910V170H894Q871 132 832.0 87.0Q793 42 729.0 9.5Q665 -23 567 -23ZM593 136Q694 136 764.5 188.5Q835 241 872.0 334.5Q909 428 909 551Q909 674 872.5 766.0Q836 858 765.5 909.5Q695 961 593 961Q491 961 420.5 908.0Q350 855 313.5 762.5Q277 670 277 551Q277 432 313.5 338.0Q350 244 421.0 190.0Q492 136 593 136Z" transform="translate(203.742,421) scale(0.007812,-0.007812)" fill="#272422"/><path d="M151 0V1104H322V934H332Q363 1018 439.0 1069.0Q515 1120 614 1120Q635 1120 661.0 1119.0Q687 1118 701 1117V938Q693 940 661.5 944.0Q630 948 594 948Q519 948 458.5 916.0Q398 884 363.5 826.0Q329 768 329 689V0Z" transform="translate(213.375,421) scale(0.007812,-0.007812)" fill="#272422"/><path d="M613 -24Q453 -24 337.0 48.0Q221 120 159.0 248.0Q97 376 97 545Q97 714 158.5 844.0Q220 974 332.5 1047.0Q445 1120 594 1120Q688 1120 775.0 1088.5Q862 1057 931.0 989.5Q1000 922 1040.0 816.0Q1080 710 1080 563V494H212V644H983L902 590Q902 699 866.5 783.0Q831 867 762.5 914.5Q694 962 594 962Q495 962 423.5 914.0Q352 866 314.0 786.5Q276 707 276 612V518Q276 397 317.5 311.0Q359 225 435.5 180.0Q512 135 614 135Q682 135 736.5 155.0Q791 175 830.0 214.0Q869 253 889 310L1062 272Q1037 185 975.0 118.0Q913 51 820.5 13.5Q728 -24 613 -24Z" transform="translate(219.203,421) scale(0.007812,-0.007812)" fill="#272422"/><path d="M528 -24Q414 -24 324.0 10.5Q234 45 176.0 113.0Q118 181 101 281L271 313Q292 220 357.5 175.5Q423 131 526 131Q641 131 709.5 180.5Q778 230 778 299Q778 357 736.5 395.0Q695 433 615 451L432 495Q281 530 207.0 605.5Q133 681 133 798Q133 893 185.5 965.5Q238 1038 330.0 1079.0Q422 1120 540 1120Q654 1120 736.0 1084.0Q818 1048 868.5 984.0Q919 920 939 836L776 803Q758 868 702.5 918.5Q647 969 541 969Q441 969 376.5 923.0Q312 877 312 807Q312 745 357.0 708.0Q402 671 495 649L664 609Q816 573 888.5 498.5Q961 424 961 309Q961 211 906.0 136.0Q851 61 753.5 18.5Q656 -24 528 -24Z" transform="translate(228.367,421) scale(0.007812,-0.007812)" fill="#272422"/><path d="M528 -24Q414 -24 324.0 10.5Q234 45 176.0 113.0Q118 181 101 281L271 313Q292 220 357.5 175.5Q423 131 526 131Q641 131 709.5 180.5Q778 230 778 299Q778 357 736.5 395.0Q695 433 615 451L432 495Q281 530 207.0 605.5Q133 681 133 798Q133 893 185.5 965.5Q238 1038 330.0 1079.0Q422 1120 540 1120Q654 1120 736.0 1084.0Q818 1048 868.5 984.0Q919 920 939 836L776 803Q758 868 702.5 918.5Q647 969 541 969Q441 969 376.5 923.0Q312 877 312 807Q312 745 357.0 708.0Q402 671 495 649L664 609Q816 573 888.5 498.5Q961 424 961 309Q961 211 906.0 136.0Q851 61 753.5 18.5Q656 -24 528 -24Z" transform="translate(236.625,421) scale(0.007812,-0.007812)" fill="#272422"/><path d="M113 -282V-131H334V1426H113V1578H506V-282Z" transform="translate(244.883,421) scale(0.007812,-0.007812)" fill="#272422"/><path d="M158 0V1490H1095V1294H386V822H1030V628H386V0Z" transform="translate(55.000,497) scale(0.004883,-0.004883)" fill="#111A33"/><path d="M158 0V1490H386V196H1066V0Z" transform="translate(62.535,497) scale(0.004883,-0.004883)" fill="#111A33"/><path d="M750 -23Q571 -23 437.5 45.5Q304 114 230.5 235.0Q157 356 157 512V1490H384V530Q384 429 428.5 351.0Q473 273 555.0 228.0Q637 183 750 183Q863 183 945.0 228.0Q1027 273 1071.0 351.0Q1115 429 1115 530V1490H1342V512Q1342 356 1268.5 235.0Q1195 114 1062.0 45.5Q929 -23 750 -23Z" transform="translate(69.840,497) scale(0.004883,-0.004883)" fill="#111A33"/><path d="M158 0V1490H1111V1294H386V851H1059V657H386V196H1116V0Z" transform="translate(78.860,497) scale(0.004883,-0.004883)" fill="#111A33"/><path d="M158 0V1490H418L980 600Q1007 559 1041.0 499.5Q1075 440 1113.5 366.5Q1152 293 1189 210L1162 199Q1155 278 1150.5 360.0Q1146 442 1144.5 514.0Q1143 586 1143 633V1490H1372V0H1111L607 796Q571 855 532.5 920.0Q494 985 446.5 1071.0Q399 1157 334 1276L369 1286Q375 1175 379.0 1080.0Q383 985 385.5 912.5Q388 840 388 797V0Z" transform="translate(86.561,497) scale(0.004883,-0.004883)" fill="#111A33"/><path d="M81 1294V1490H1240V1294H775V0H548V1294Z" transform="translate(95.731,497) scale(0.004883,-0.004883)" fill="#111A33"/><path d="" transform="translate(103.887,497) scale(0.004883,-0.004883)" fill="#111A33"/><path d="M386 1490V0H158V1490Z" transform="translate(108.189,497) scale(0.004883,-0.004883)" fill="#111A33"/><path d="M662 -24Q493 -24 368.5 30.5Q244 85 174.5 187.0Q105 289 99 429H326Q332 345 377.0 288.0Q422 231 496.0 202.0Q570 173 661 173Q757 173 831.5 203.0Q906 233 948.5 287.0Q991 341 991 413Q991 477 955.5 518.5Q920 560 856.5 588.5Q793 617 708 639L535 684Q343 735 240.5 831.0Q138 927 138 1081Q138 1210 206.5 1307.0Q275 1404 394.5 1457.5Q514 1511 666 1511Q821 1511 938.0 1456.5Q1055 1402 1121.0 1306.5Q1187 1211 1191 1086H970Q960 1194 876.0 1254.0Q792 1314 662 1314Q572 1314 505.0 1285.5Q438 1257 401.0 1207.0Q364 1157 364 1093Q364 1026 404.0 983.0Q444 940 506.5 914.0Q569 888 636 870L784 832Q864 812 941.0 780.0Q1018 748 1080.0 699.0Q1142 650 1178.5 580.0Q1215 510 1215 414Q1215 286 1149.5 187.0Q1084 88 960.0 32.0Q836 -24 662 -24Z" transform="translate(112.545,497) scale(0.004883,-0.004883)" fill="#111A33"/><path d="" transform="translate(120.661,497) scale(0.004883,-0.004883)" fill="#111A33"/><path d="M782 -21Q587 -21 434.5 72.0Q282 165 194.0 336.5Q106 508 106 744Q106 981 194.0 1153.0Q282 1325 434.5 1418.0Q587 1511 782 1511Q976 1511 1128.5 1418.0Q1281 1325 1368.5 1153.0Q1456 981 1456 744Q1456 508 1368.5 336.5Q1281 165 1128.5 72.0Q976 -21 782 -21ZM782 186Q909 186 1010.5 250.0Q1112 314 1171.0 439.0Q1230 564 1230 744Q1230 926 1171.0 1051.0Q1112 1176 1010.5 1240.0Q909 1304 782 1304Q654 1304 552.0 1239.5Q450 1175 390.5 1050.0Q331 925 331 744Q331 564 390.5 439.5Q450 315 552.0 250.5Q654 186 782 186Z" transform="translate(124.964,497) scale(0.004883,-0.004883)" fill="#111A33"/><path d="M158 0V1490H418L980 600Q1007 559 1041.0 499.5Q1075 440 1113.5 366.5Q1152 293 1189 210L1162 199Q1155 278 1150.5 360.0Q1146 442 1144.5 514.0Q1143 586 1143 633V1490H1372V0H1111L607 796Q571 855 532.5 920.0Q494 985 446.5 1071.0Q399 1157 334 1276L369 1286Q375 1175 379.0 1080.0Q383 985 385.5 912.5Q388 840 388 797V0Z" transform="translate(134.291,497) scale(0.004883,-0.004883)" fill="#111A33"/><path d="M158 0V1490H386V196H1066V0Z" transform="translate(143.462,497) scale(0.004883,-0.004883)" fill="#111A33"/><path d="M593 0V594L43 1490H307L588 1016Q633 940 669.5 869.0Q706 798 744 700H671Q709 799 745.5 871.0Q782 943 825 1016L1103 1490H1365L819 594V0Z" transform="translate(150.767,497) scale(0.004883,-0.004883)" fill="#111A33"/><path d="" transform="translate(159.342,497) scale(0.004883,-0.004883)" fill="#111A33"/><path d="M81 1294V1490H1240V1294H775V0H548V1294Z" transform="translate(163.645,497) scale(0.004883,-0.004883)" fill="#111A33"/><path d="M158 0V1490H386V860H1124V1490H1351V0H1124V664H386V0Z" transform="translate(171.800,497) scale(0.004883,-0.004883)" fill="#111A33"/><path d="M158 0V1490H1111V1294H386V851H1059V657H386V196H1116V0Z" transform="translate(180.868,497) scale(0.004883,-0.004883)" fill="#111A33"/><path d="" transform="translate(188.569,497) scale(0.004883,-0.004883)" fill="#111A33"/><path d="M158 0V1490H709Q867 1490 972.0 1438.5Q1077 1387 1130.0 1299.0Q1183 1211 1183 1099Q1183 1007 1149.5 943.5Q1116 880 1059.0 840.5Q1002 801 931 782V770Q1008 764 1079.0 720.5Q1150 677 1195.5 597.5Q1241 518 1241 405Q1241 289 1186.0 197.0Q1131 105 1018.5 52.5Q906 0 732 0ZM385 194H710Q869 194 941.5 255.5Q1014 317 1014 414Q1014 486 978.5 543.5Q943 601 877.0 634.5Q811 668 719 668H385ZM385 846H692Q769 846 829.5 874.5Q890 903 924.5 955.5Q959 1008 959 1079Q959 1174 893.5 1235.5Q828 1297 697 1297H385Z" transform="translate(192.871,497) scale(0.004883,-0.004883)" fill="#111A33"/><path d="M158 0V1490H1111V1294H386V851H1059V657H386V196H1116V0Z" transform="translate(201.104,497) scale(0.004883,-0.004883)" fill="#111A33"/><path d="M787 -21Q584 -21 431.0 73.0Q278 167 192.0 339.0Q106 511 106 744Q106 980 193.0 1152.0Q280 1324 432.0 1417.5Q584 1511 778 1511Q899 1511 1004.0 1475.0Q1109 1439 1191.5 1373.0Q1274 1307 1328.0 1216.0Q1382 1125 1401 1015H1168Q1149 1081 1114.0 1134.5Q1079 1188 1029.5 1226.0Q980 1264 917.5 1284.0Q855 1304 781 1304Q652 1304 550.0 1238.5Q448 1173 389.5 1048.0Q331 923 331 745Q331 568 389.5 443.0Q448 318 551.0 252.0Q654 186 788 186Q907 186 998.0 235.0Q1089 284 1139.5 374.0Q1190 464 1190 585L1250 576H824V763H1412V592Q1412 406 1331.0 268.5Q1250 131 1109.0 55.0Q968 -21 787 -21Z" transform="translate(208.805,497) scale(0.004883,-0.004883)" fill="#111A33"/><path d="M386 1490V0H158V1490Z" transform="translate(217.947,497) scale(0.004883,-0.004883)" fill="#111A33"/><path d="M158 0V1490H418L980 600Q1007 559 1041.0 499.5Q1075 440 1113.5 366.5Q1152 293 1189 210L1162 199Q1155 278 1150.5 360.0Q1146 442 1144.5 514.0Q1143 586 1143 633V1490H1372V0H1111L607 796Q571 855 532.5 920.0Q494 985 446.5 1071.0Q399 1157 334 1276L369 1286Q375 1175 379.0 1080.0Q383 985 385.5 912.5Q388 840 388 797V0Z" transform="translate(222.303,497) scale(0.004883,-0.004883)" fill="#111A33"/><path d="M158 0V1490H418L980 600Q1007 559 1041.0 499.5Q1075 440 1113.5 366.5Q1152 293 1189 210L1162 199Q1155 278 1150.5 360.0Q1146 442 1144.5 514.0Q1143 586 1143 633V1490H1372V0H1111L607 796Q571 855 532.5 920.0Q494 985 446.5 1071.0Q399 1157 334 1276L369 1286Q375 1175 379.0 1080.0Q383 985 385.5 912.5Q388 840 388 797V0Z" transform="translate(231.474,497) scale(0.004883,-0.004883)" fill="#111A33"/><path d="M386 1490V0H158V1490Z" transform="translate(240.645,497) scale(0.004883,-0.004883)" fill="#111A33"/><path d="M158 0V1490H418L980 600Q1007 559 1041.0 499.5Q1075 440 1113.5 366.5Q1152 293 1189 210L1162 199Q1155 278 1150.5 360.0Q1146 442 1144.5 514.0Q1143 586 1143 633V1490H1372V0H1111L607 796Q571 855 532.5 920.0Q494 985 446.5 1071.0Q399 1157 334 1276L369 1286Q375 1175 379.0 1080.0Q383 985 385.5 912.5Q388 840 388 797V0Z" transform="translate(245.001,497) scale(0.004883,-0.004883)" fill="#111A33"/><path d="M787 -21Q584 -21 431.0 73.0Q278 167 192.0 339.0Q106 511 106 744Q106 980 193.0 1152.0Q280 1324 432.0 1417.5Q584 1511 778 1511Q899 1511 1004.0 1475.0Q1109 1439 1191.5 1373.0Q1274 1307 1328.0 1216.0Q1382 1125 1401 1015H1168Q1149 1081 1114.0 1134.5Q1079 1188 1029.5 1226.0Q980 1264 917.5 1284.0Q855 1304 781 1304Q652 1304 550.0 1238.5Q448 1173 389.5 1048.0Q331 923 331 745Q331 568 389.5 443.0Q448 318 551.0 252.0Q654 186 788 186Q907 186 998.0 235.0Q1089 284 1139.5 374.0Q1190 464 1190 585L1250 576H824V763H1412V592Q1412 406 1331.0 268.5Q1250 131 1109.0 55.0Q968 -21 787 -21Z" transform="translate(254.171,497) scale(0.004883,-0.004883)" fill="#111A33"/><path d="M294 -16Q233 -16 190.0 26.5Q147 69 147 130Q147 191 190.0 233.5Q233 276 294 276Q355 276 397.5 233.5Q440 191 440 130Q440 69 397.5 26.5Q355 -16 294 -16Z" transform="translate(263.313,497) scale(0.004883,-0.004883)" fill="#111A33"/></svg>